<svg width="147.2px" height="48.8px" xmlns="http://www.w3.org/2000/svg" viewBox="176.4 50.6 147.2 48.8" style="background: rgba(0, 0, 0, 0);" preserveAspectRatio="xMidYMid"><defs><filter id="editing-extrusion" x="-100%" y="-100%" width="300%" height="300%"><feFlood result="color1" flood-color="#444"></feFlood><feConvolveMatrix order="8,8" divisor="1" kernelMatrix="1 0 0 0 0 0 0 0 0 1 0 0 0 0 0 0 0 0 1 0 0 0 0 0 0 0 0 1 0 0 0 0 0 0 0 0 1 0 0 0 0 0 0 0 0 1 0 0 0 0 0 0 0 0 1 0 0 0 0 0 0 0 0 1" in="SourceAlpha" result="extrude"></feConvolveMatrix><feComposite in="color1" in2="extrude" result="comp-extrude" operator="in"></feComposite><feOffset dx="4" dy="4" in="comp-extrude" result="offset-extrude"></feOffset><feMerge><feMergeNode in="offset-extrude"></feMergeNode><feMergeNode in="SourceGraphic"></feMergeNode></feMerge></filter></defs><g filter="url(#editing-extrusion)"><g transform="translate(201.66000884771347, 81.75000190734863)"><path d="M7.60-5.80L11.23-6.12L11.23-6.12Q9.94-3.28 9.94 0.02L9.94 0.02L9.94 0.02Q9.45 0.36 8.74 0.36L8.74 0.36L8.74 0.36Q8.03 0.36 7.58 0.03L7.58 0.03L7.58 0.03Q7.13-0.31 7.04-0.65L7.04-0.65L7.04-0.65Q6.59-0.18 5.86 0.09L5.86 0.09L5.86 0.09Q5.13 0.36 4.36 0.36L4.36 0.36L4.36 0.36Q3.58 0.36 2.91 0.11L2.91 0.11L2.91 0.11Q2.23-0.14 1.71-0.70L1.71-0.70L1.71-0.70Q0.56-1.93 0.56-4.25L0.56-4.25L0.56-4.25Q0.56-7.85 2.48-10.01L2.48-10.01L2.48-10.01Q4.46-12.24 7.97-12.24L7.97-12.24L7.97-12.24Q10.40-12.24 11.27-10.98L11.27-10.98L11.27-10.98Q11.54-10.58 11.54-10.11L11.54-10.11L11.54-10.11Q11.54-9.63 11.33-9.23L11.33-9.23L11.33-9.23Q11.12-8.82 10.80-8.50L10.80-8.50L10.80-8.50Q10.03-7.78 9.07-7.78L9.07-7.78L9.07-7.78Q8.69-7.78 8.33-7.90L8.33-7.90L8.33-7.90Q8.41-8.44 8.41-9.07L8.41-9.07L8.41-9.07Q8.41-9.70 8.36-9.99L8.36-9.99L8.36-9.99Q8.32-10.28 8.21-10.51L8.21-10.51L8.21-10.51Q7.97-11.00 7.46-11.00L7.46-11.00L7.46-11.00Q6.95-11.00 6.38-10.45L6.38-10.45L6.38-10.45Q5.81-9.90 5.36-9.00L5.36-9.00L5.36-9.00Q4.37-6.98 4.37-4.55L4.37-4.55L4.37-4.55Q4.37-3.44 4.81-2.65L4.81-2.65L4.81-2.65Q5.27-1.78 6.10-1.78L6.10-1.78L6.10-1.78Q6.39-1.78 6.65-1.93L6.65-1.93L6.65-1.93Q6.91-2.07 7.02-2.18L7.02-2.18L7.60-5.80ZM17.75-5.06L17.75-5.06L17.75-5.06Q18.40-6.21 18.40-7.38L18.40-7.38L18.40-7.38Q18.40-8.15 17.84-8.15L17.84-8.15L17.84-8.15Q17.41-8.15 16.96-7.42L16.96-7.42L16.96-7.42Q16.49-6.68 16.34-5.72L16.34-5.72L15.41 0L11.68 0.36L13.52-9.18L16.49-9.54L16.16-7.72L16.16-7.72Q17.05-9.54 19.03-9.54L19.03-9.54L19.03-9.54Q20.07-9.54 20.64-9.00L20.64-9.00L20.64-9.00Q21.20-8.46 21.20-7.35L21.20-7.35L21.20-7.35Q21.20-6.25 20.48-5.54L20.48-5.54L20.48-5.54Q19.75-4.84 18.50-4.84L18.50-4.84L18.50-4.84Q17.96-4.84 17.75-5.06ZM22.28-0.54L22.28-0.54L22.28-0.54Q21.85-1.01 21.66-1.75L21.66-1.75L21.66-1.75Q21.47-2.48 21.47-3.69L21.47-3.69L21.47-3.69Q21.47-4.90 21.89-5.99L21.89-5.99L21.89-5.99Q22.30-7.09 23.06-7.88L23.06-7.88L23.06-7.88Q24.61-9.54 27.16-9.54L27.16-9.54L27.16-9.54Q28.08-9.54 28.75-9.23L28.75-9.23L31.82-9.54L30.49-2.52L30.49-2.52Q30.44-2.30 30.44-1.91L30.44-1.91L30.44-1.91Q30.44-1.51 30.68-1.26L30.68-1.26L30.68-1.26Q30.92-1.01 31.28-0.97L31.28-0.97L31.28-0.97Q31.10-0.36 30.45 0L30.45 0L30.45 0Q29.79 0.36 29.05 0.36L29.05 0.36L29.05 0.36Q28.31 0.36 27.82 0.08L27.82 0.08L27.82 0.08Q27.32-0.20 27.18-0.67L27.18-0.67L27.18-0.67Q26.89-0.22 26.28 0.07L26.28 0.07L26.28 0.07Q25.67 0.36 24.85 0.36L24.85 0.36L24.85 0.36Q24.03 0.36 23.36 0.14L23.36 0.14L23.36 0.14Q22.70-0.07 22.28-0.54ZM26.07-7.85L26.07-7.85L26.07-7.85Q25.87-7.52 25.69-6.98L25.69-6.98L25.69-6.98Q25.51-6.43 25.21-4.96L25.21-4.96L25.21-4.96Q24.91-3.49 24.91-2.45L24.91-2.45L24.91-2.45Q24.91-1.40 25.07-1.10L25.07-1.10L25.07-1.10Q25.24-0.79 25.52-0.79L25.52-0.79L25.52-0.79Q26.10-0.79 26.52-1.34L26.52-1.34L26.52-1.34Q26.95-1.89 27.11-2.86L27.11-2.86L28.06-8.14L28.06-8.14Q27.68-8.46 27.24-8.46L27.24-8.46L27.24-8.46Q26.80-8.46 26.54-8.32L26.54-8.32L26.54-8.32Q26.28-8.17 26.07-7.85ZM39.33-8.87L39.33-8.87L39.33-8.87Q39.92-9.54 40.95-9.54L40.95-9.54L40.95-9.54Q41.58-9.54 42.07-9.20L42.07-9.20L42.07-9.20Q42.55-8.86 42.55-8.22L42.55-8.22L42.55-8.22Q42.55-7.58 42.35-6.89L42.35-6.89L42.35-6.89Q42.16-6.21 41.85-5.51L41.85-5.51L41.85-5.51Q41.24-4.14 40.39-3.01L40.39-3.01L40.39-3.01Q39.20-1.37 38.06-0.50L38.06-0.50L38.06-0.50Q36.92 0.36 35.68 0.36L35.68 0.36L35.68 0.36Q34.67 0.36 34.06 0.13L34.06 0.13L34.06 0.13Q33.95-3.65 33.81-5.00L33.81-5.00L33.81-5.00Q33.68-6.35 33.57-7.09L33.57-7.09L33.57-7.09Q33.39-8.53 32.85-8.87L32.85-8.87L32.85-8.87Q33.26-9.23 33.67-9.39L33.67-9.39L33.67-9.39Q34.07-9.54 34.91-9.54L34.91-9.54L34.91-9.54Q35.75-9.54 36.34-8.88L36.34-8.88L36.34-8.88Q36.94-8.23 37.05-7.07L37.05-7.07L37.05-7.07Q37.17-5.90 37.17-4.50L37.17-4.50L37.17-4.50Q37.17-3.10 37.06-1.40L37.06-1.40L37.06-1.40Q37.62-1.80 38.21-3.01L38.21-3.01L38.21-3.01Q39.02-4.68 39.31-6.70L39.31-6.70L39.31-6.70Q39.40-7.31 39.40-7.96L39.40-7.96L39.40-7.96Q39.40-8.60 39.33-8.87ZM47.36-0.99L47.36-0.99L47.36-0.99Q46.80 0.36 45.02 0.36L45.02 0.36L45.02 0.36Q44.10 0.36 43.52-0.27L43.52-0.27L43.52-0.27Q43.04-0.83 43.04-1.39L43.04-1.39L43.04-1.39Q43.04-2.84 43.70-5.69L43.70-5.69L44.37-9.18L48.02-9.54L46.93-3.85L46.93-3.85Q46.62-2.52 46.62-2.05L46.62-2.05L46.62-2.05Q46.62-1.03 47.36-0.99ZM44.69-11.68L44.69-11.68L44.69-11.68Q44.69-12.38 45.28-12.76L45.28-12.76L45.28-12.76Q45.86-13.14 46.71-13.14L46.71-13.14L46.71-13.14Q47.56-13.14 48.07-12.76L48.07-12.76L48.07-12.76Q48.58-12.38 48.58-11.68L48.58-11.68L48.58-11.68Q48.58-10.98 48.02-10.62L48.02-10.62L48.02-10.62Q47.45-10.26 46.60-10.26L46.60-10.26L46.60-10.26Q45.76-10.26 45.23-10.62L45.23-10.62L45.23-10.62Q44.69-10.98 44.69-11.68ZM49.18-1.80L49.18-1.80L49.18-1.80Q49.18-2.29 49.43-3.51L49.43-3.51L50.38-8.37L49.32-8.37L49.39-8.91L49.39-8.91Q51.55-9.56 53.64-11.14L53.64-11.14L54.50-11.14L54.07-9.18L55.48-9.18L55.31-8.37L53.93-8.37L53.01-3.51L53.01-3.51Q52.78-2.39 52.78-2.02L52.78-2.02L52.78-2.02Q52.78-1.15 53.53-0.97L53.53-0.97L53.53-0.97Q53.35-0.36 52.70 0L52.70 0L52.70 0Q52.06 0.36 51.14 0.36L51.14 0.36L51.14 0.36Q50.22 0.36 49.70-0.22L49.70-0.22L49.70-0.22Q49.18-0.79 49.18-1.80ZM59.24 0.36L59.24 0.36L59.24 0.36Q55.28 0.36 55.28-3.37L55.28-3.37L55.28-3.37Q55.28-6.01 56.74-7.72L56.74-7.72L56.74-7.72Q58.28-9.54 60.97-9.54L60.97-9.54L60.97-9.54Q62.91-9.54 63.90-8.64L63.90-8.64L63.90-8.64Q64.89-7.74 64.89-5.85L64.89-5.85L64.89-5.85Q64.89-2.97 63.34-1.30L63.34-1.30L63.34-1.30Q61.83 0.36 59.24 0.36ZM59.71-7.47L59.71-7.47L59.71-7.47Q59.49-6.98 59.32-6.26L59.32-6.26L59.32-6.26Q59.15-5.53 58.93-4.37L58.93-4.37L58.93-4.37Q58.72-3.22 58.72-1.80L58.72-1.80L58.72-1.80Q58.72-1.33 58.87-1.03L58.87-1.03L58.87-1.03Q59.02-0.72 59.44-0.72L59.44-0.72L59.44-0.72Q59.85-0.72 60.11-0.92L60.11-0.92L60.11-0.92Q60.37-1.12 60.57-1.58L60.57-1.58L60.57-1.58Q60.93-2.41 61.22-3.95L61.22-3.95L61.22-3.95Q61.51-5.49 61.53-6.16L61.53-6.16L61.53-6.16Q61.56-6.82 61.56-7.32L61.56-7.32L61.56-7.32Q61.56-7.81 61.42-8.14L61.42-8.14L61.42-8.14Q61.27-8.46 60.87-8.46L60.87-8.46L60.87-8.46Q60.46-8.46 60.19-8.21L60.19-8.21L60.19-8.21Q59.92-7.96 59.71-7.47ZM65.41-1.06L65.41-1.06L65.41-1.06Q65.41-1.75 65.94-2.12L65.94-2.12L65.94-2.12Q66.47-2.50 67.23-2.50L67.23-2.50L67.23-2.50Q67.99-2.50 68.45-2.12L68.45-2.12L68.45-2.12Q68.90-1.75 68.90-1.06L68.90-1.06L68.90-1.06Q68.90-0.38 68.39-0.01L68.39-0.01L68.39-0.01Q67.88 0.36 67.12 0.36L67.12 0.36L67.12 0.36Q66.37 0.36 65.89-0.01L65.89-0.01L65.89-0.01Q65.41-0.38 65.41-1.06ZM83.54 0.36L83.54 0.36L83.54 0.36Q81.36 0.36 81.36-1.33L81.36-1.33L81.36-1.33Q81.36-2.07 81.68-3.50L81.68-3.50L81.68-3.50Q81.99-4.93 82.10-5.51L82.10-5.51L82.10-5.51Q82.35-6.82 82.35-7.24L82.35-7.24L82.35-7.24Q82.35-8.15 81.67-8.15L81.67-8.15L81.67-8.15Q81.22-8.15 80.78-7.53L80.78-7.53L80.78-7.53Q80.35-6.91 80.15-5.67L80.15-5.67L79.04 0L75.53 0.36L76.50-4.54L76.50-4.54Q76.66-5.35 76.81-6.26L76.81-6.26L76.81-6.26Q76.95-7.18 76.95-7.33L76.95-7.33L76.95-7.33Q76.95-8.15 76.34-8.15L76.34-8.15L76.34-8.15Q75.92-8.15 75.47-7.54L75.47-7.54L75.47-7.54Q75.02-6.93 74.77-5.67L74.77-5.67L73.67 0L70.13 0.36L72.02-9.18L74.95-9.54L74.65-7.72L74.65-7.72Q75.11-8.69 75.98-9.12L75.98-9.12L75.98-9.12Q76.84-9.54 78.19-9.54L78.19-9.54L78.19-9.54Q78.97-9.54 79.47-9.16L79.47-9.16L79.47-9.16Q79.97-8.78 80.14-8.17L80.14-8.17L80.14-8.17Q80.44-8.80 81.23-9.17L81.23-9.17L81.23-9.17Q82.01-9.54 82.97-9.54L82.97-9.54L82.97-9.54Q83.93-9.54 84.41-9.33L84.41-9.33L84.41-9.33Q84.89-9.13 85.18-8.78L85.18-8.78L85.18-8.78Q85.66-8.15 85.66-7.00L85.66-7.00L85.66-7.00Q85.66-5.87 85.18-3.51L85.18-3.51L85.18-3.51Q84.92-2.36 84.92-1.94L84.92-1.94L84.92-1.94Q84.92-1.51 85.17-1.26L85.17-1.26L85.17-1.26Q85.41-1.01 85.77-0.97L85.77-0.97L85.77-0.97Q85.59-0.36 84.97 0L84.97 0L84.97 0Q84.35 0.36 83.54 0.36ZM94.45-3.04L94.45-3.04L94.45-3.04Q94.90-2.74 94.90-2.06L94.90-2.06L94.90-2.06Q94.90-1.39 94.55-0.95L94.55-0.95L94.55-0.95Q94.21-0.52 93.65-0.23L93.65-0.23L93.65-0.23Q92.50 0.36 91.26 0.36L91.26 0.36L91.26 0.36Q90.02 0.36 89.29 0.09L89.29 0.09L89.29 0.09Q88.56-0.18 88.07-0.68L88.07-0.68L88.07-0.68Q87.12-1.64 87.12-3.38L87.12-3.38L87.12-3.38Q87.12-6.10 88.60-7.76L88.60-7.76L88.60-7.76Q90.18-9.54 92.93-9.54L92.93-9.54L92.93-9.54Q94.64-9.54 95.49-8.82L95.49-8.82L95.49-8.82Q96.12-8.28 96.12-7.40L96.12-7.40L96.12-7.40Q96.12-4.23 90.65-4.23L90.65-4.23L90.65-4.23Q90.58-3.76 90.58-3.37L90.58-3.37L90.58-3.37Q90.58-2.54 90.95-2.22L90.95-2.22L90.95-2.22Q91.31-1.91 92.00-1.91L92.00-1.91L92.00-1.91Q92.68-1.91 93.41-2.22L93.41-2.22L93.41-2.22Q94.14-2.54 94.45-3.04ZM90.77-5.00L90.77-5.00L90.77-5.00Q92.05-5.00 92.79-5.80L92.79-5.80L92.79-5.80Q93.53-6.55 93.53-7.76L93.53-7.76L93.53-7.76Q93.53-8.17 93.38-8.40L93.38-8.40L93.38-8.40Q93.22-8.62 92.92-8.62L92.92-8.62L92.92-8.62Q92.61-8.62 92.35-8.51L92.35-8.51L92.35-8.51Q92.09-8.39 91.82-7.99L91.82-7.99L91.82-7.99Q91.15-7.09 90.77-5.00Z" fill="#ccc"></path></g></g><style>text {
  font-size: 64px;
  font-family: Arial Black;
  dominant-baseline: central;
  text-anchor: middle;
}</style></svg>